<svg viewBox="126.806 71.185 220.706 146.846" xmlns="http://www.w3.org/2000/svg" xmlns:bx="https://boxy-svg.com">
  <defs></defs>
  <path style="fill: rgba(216, 216, 216, 0); fill-rule: evenodd; stroke: rgb(255, 255, 255);" d="M 132.4 214.747 L 155.59633333333332 195.36400000000003 C 178.79266666666663 175.981 225.18533333333332 137.215 260.2473333333333 120.35633333333334 C 295.3093333333333 103.49766666666666 319.04066666666665 108.54633333333334 330.9063333333333 111.07066666666667 L 342.772 113.595" bx:d="M 132.4 214.747 U 271.578 98.449 U 342.772 113.595 1@61d00519"></path>
  <path style="fill: rgba(216, 216, 216, 0); fill-rule: evenodd; stroke: rgb(255, 255, 255);" d="M 132.176 215.031 L 155.49866666666665 195.745 C 178.8213333333333 176.45899999999997 225.4666666666667 137.887 260.7196666666667 121.11266666666666 C 295.9726666666667 104.33833333333332 319.8333333333333 109.36166666666668 331.76366666666667 111.87333333333333 L 343.694 114.385" bx:d="M 132.176 215.031 U 272.112 99.315 U 343.694 114.385 1@a5e16423"></path>
  <path style="fill: rgba(216, 216, 216, 0); fill-rule: evenodd; stroke: rgb(255, 255, 255);" d="M 132.176 215.366 L 155.49866666666665 196.08000000000004 C 178.8213333333333 176.794 225.4666666666667 138.222 260.7196666666667 121.44766666666668 C 295.9726666666667 104.67333333333333 319.8333333333333 109.69666666666667 331.76366666666667 112.20833333333333 L 343.694 114.72" bx:d="M 132.176 215.366 U 272.112 99.65 U 343.694 114.72 1@24bf68f1"></path>
  <path style="fill: rgba(216, 216, 216, 0); fill-rule: evenodd; stroke: rgb(255, 255, 255);" d="M 132.176 215.98 L 155.49866666666665 196.69399999999996 C 178.8213333333333 177.408 225.4666666666667 138.83599999999998 260.7196666666667 122.06166666666665 C 295.9726666666667 105.28733333333332 319.8333333333333 110.31066666666668 331.76366666666667 112.82233333333333 L 343.694 115.334" bx:d="M 132.176 215.98 U 272.112 100.264 U 343.694 115.334 1@c0a1d0b7"></path>
  <polyline style="fill: rgb(216, 216, 216); stroke: rgb(255, 255, 255);" points="343.694 113.165 308.463 148.301" transform="matrix(-1, 0, 0, -1, 652.157004, 261.465997)"></polyline>
  <polyline style="fill: rgb(216, 216, 216); stroke: rgb(255, 255, 255);" points="345.233 114.377 309.846 149.69" transform="matrix(-1, 0, 0, -1, 655.079013, 264.067002)"></polyline>
  <polyline style="fill: rgb(216, 216, 216); stroke: rgb(255, 255, 255);" points="344.542 113.683 309.155 148.996" transform="matrix(-1, 0, 0, -1, 653.697001, 262.679001)"></polyline>
  <polyline style="fill: rgb(216, 216, 216); stroke: rgb(255, 255, 255);" points="345.232 114.766 310.001 79.63"></polyline>
  <polyline style="fill: rgb(216, 216, 216); stroke: rgb(255, 255, 255);" points="343.85 116.155 308.463 80.842"></polyline>
  <polyline style="fill: rgb(216, 216, 216); stroke: rgb(255, 255, 255);" points="344.54 115.461 309.154 80.148"></polyline>
</svg>