<svg viewBox="126.806 71.185 220.706 146.846" xmlns="http://www.w3.org/2000/svg" xmlns:bx="https://boxy-svg.com">
  <defs></defs>
  <path style="fill: rgba(216, 216, 216, 0); fill-rule: evenodd; stroke: rgb(255, 255, 255);" d="M 134.637 108.354 L 157.83333333333334 127.73700000000001 C 181.02966666666666 147.12 227.42233333333334 185.886 262.4843333333333 202.7446666666667 C 297.54633333333334 219.60333333333332 321.2776666666667 214.55466666666666 333.1433333333334 212.03033333333335 L 345.009 209.506" transform="matrix(-1, 0, 0, -1, 479.645993, 323.101416)" bx:d="M 134.637 108.354 U 273.815 224.652 U 345.009 209.506 1@fe64834f"></path>
  <path style="fill: rgba(216, 216, 216, 0); fill-rule: evenodd; stroke: rgb(255, 255, 255);" d="M 133.715 109.17 L 157.0376666666667 128.456 C 180.36033333333333 147.742 227.00566666666668 186.314 262.25866666666667 203.08833333333334 C 297.5116666666667 219.86266666666666 321.3723333333333 214.83933333333334 333.30266666666665 212.3276666666667 L 345.233 209.816" transform="matrix(-1, 0, 0, -1, 478.947979, 324.201083)" bx:d="M 133.715 109.17 U 273.651 224.886 U 345.233 209.816 1@49679379"></path>
  <path style="fill: rgba(216, 216, 216, 0); fill-rule: evenodd; stroke: rgb(255, 255, 255);" d="M 133.715 109.505 L 157.0376666666667 128.791 C 180.36033333333333 148.077 227.00566666666668 186.649 262.25866666666667 203.42333333333332 C 297.5116666666667 220.1976666666667 321.3723333333333 215.17433333333335 333.30266666666665 212.6626666666667 L 345.233 210.151" transform="matrix(-1, 0, 0, -1, 478.947979, 324.871102)" bx:d="M 133.715 109.505 U 273.651 225.221 U 345.233 210.151 1@34281d5d"></path>
  <path style="fill: rgba(216, 216, 216, 0); fill-rule: evenodd; stroke: rgb(255, 255, 255);" d="M 133.715 110.119 L 157.0376666666667 129.405 C 180.36033333333333 148.691 227.00566666666668 187.263 262.25866666666667 204.03733333333335 C 297.5116666666667 220.81166666666664 321.3723333333333 215.78833333333333 333.30266666666665 213.27666666666664 L 345.233 210.765" transform="matrix(-1, 0, 0, -1, 478.947979, 326.099106)" bx:d="M 133.715 110.119 U 273.651 225.835 U 345.233 210.765 1@b176379d"></path>
  <polyline style="fill: rgb(216, 216, 216); stroke: rgb(255, 255, 255);" points="168.946 148.301 133.715 113.165"></polyline>
  <polyline style="fill: rgb(216, 216, 216); stroke: rgb(255, 255, 255);" points="167.563 149.69 132.176 114.377"></polyline>
  <polyline style="fill: rgb(216, 216, 216); stroke: rgb(255, 255, 255);" points="168.254 148.996 132.867 113.683"></polyline>
  <polyline style="fill: rgb(216, 216, 216); stroke: rgb(255, 255, 255);" points="167.408 79.63 132.177 114.766" transform="matrix(-1, 0, 0, -1, 299.585005, 194.396)"></polyline>
  <polyline style="fill: rgb(216, 216, 216); stroke: rgb(255, 255, 255);" points="168.946 80.842 133.559 116.155" transform="matrix(-1, 0, 0, -1, 302.505009, 196.997013)"></polyline>
  <polyline style="fill: rgb(216, 216, 216); stroke: rgb(255, 255, 255);" points="168.255 80.148 132.869 115.461" transform="matrix(-1, 0, 0, -1, 301.124016, 195.608996)"></polyline>
</svg>